# xmcd
#
# Track frame offsets:
#	150
#	12533
#	29614
#	46834
#	66543
#	84026
#	101006
#	114623
#	134409
#	150717
#	170445
#	187916
#	208764
#	225206
#
# Disc length: 3239 seconds
#
# Revision: 1
# Processed by: cddbd v1.5.2PL0 Copyright (c) Steve Scherf et al.
# Submitted via: audiograbber 1.83.01
#
DISCID=b50ca50e
DTITLE=Herrick - New Dance
DYEAR=2012
DGENRE=Alternative
TTITLE0=Walk A Mile
TTITLE1=Love And Misery
TTITLE2=Do You Love Me
TTITLE3=Drive
TTITLE4=Hey Savanna
TTITLE5=You Dont Know What Love Is
TTITLE6=Pain In My Heart
TTITLE7=Wicked Maria
TTITLE8=Hangmen Hill
TTITLE9=Heaven Dont Let Me Down
TTITLE10=Cry Memphis
TTITLE11=Satan And Grandma
TTITLE12=Too Much Of Too Little
TTITLE13=Last Words
EXTD=
EXTT0=ISRC: US6E41100001
EXTT1=ISRC: US6E41100002
EXTT2=ISRC: US6E41100003
EXTT3=ISRC: US6E41100004
EXTT4=ISRC: US6E41100005
EXTT5=ISRC: US6E41100006
EXTT6=ISRC: US6E41100007
EXTT7=ISRC: US6E41100008
EXTT8=ISRC: US6E41100009
EXTT9=ISRC: US6E41100010
EXTT10=ISRC: US6E41100011
EXTT11=ISRC: US6E41100012
EXTT12=ISRC: US6E41100013
EXTT13=ISRC: US6E41100014
PLAYORDER=
